<!-- Generated by IcoMoon.io -->
<svg version="1.1" xmlns="http://www.w3.org/2000/svg" width="1024" height="1024" viewBox="0 0 1024 1024">
<g id="icomoon-ignore">
</g>
<path d="M632.405 439.808c-17.085 8.95-37.322 14.202-58.786 14.202-71.117 0-128.768-57.651-128.768-128.768s57.651-128.768 128.768-128.768c50.072 0 93.469 28.58 114.768 70.317l0.338 0.729c8.722 16.862 13.836 36.807 13.836 57.946 0 49.634-28.194 92.683-69.44 114.005l-0.716 0.337zM494.933 24.405c105.387-38.443 225.877-36.352 316.075 41.899 18.761 15.523 33.601 35.112 43.266 57.462l0.382 0.992c9.088 29.44-31.957-2.987-37.547-7.168-26.421-18.302-56.717-34.073-88.944-45.83l-2.789-0.89c-177.664-54.4-345.771 44.629-449.621 198.613-39.854 62.918-72.612 135.596-94.495 212.845l-1.42 5.864c-2.182 10.378-5.316 19.534-9.411 28.146l0.323-0.754c-4.565 8.704-2.091-23.339-2.091-24.405 4.359-36.389 10.797-68.79 19.459-100.27l-1.112 4.739c48.128-167.808 154.752-307.541 307.925-371.243zM496.512 920.107v-373.888c10.624 1.067 20.736 1.579 31.403 1.579 0.244 0.001 0.533 0.001 0.823 0.001 50.466 0 97.614-14.207 137.662-38.841l-1.141 0.653v410.453c0 35.072-6.4 61.013-22.187 77.909-14.675 16.050-35.706 26.078-59.078 26.078-1.011 0-2.017-0.019-3.019-0.056l0.145 0.004c-0.828 0.032-1.801 0.050-2.777 0.050-23.063 0-43.784-10.027-58.042-25.959l-0.066-0.075c-15.701-17.237-23.893-43.221-23.723-77.909z"></path>
</svg>
